PathFileType	4	(X/Y/Z)	RUN4																																																													
DataRate	CameraRate	NumFrames	NumMarkers	Units	OrigDataRate	OrigDataStartFrame	OrigNumFrames																																																									
72	72	17	21	mm	72	107	854																																																									
Frame#	Time	Hand_Start			Hand_Thumb1			Hand_Thumb2			Hand_Thumb3			Hand_Index1			Hand_Index2			Hand_Index3			Hand_Middle1			Hand_Middle2			Hand_Middle3			Hand_Ring1			Hand_Ring2			Hand_Ring3			Hand_Pinky1			Hand_Pinky2			Hand_Pinky3			Hand_ThumbTip			Hand_IndexTip			Hand_MiddleTip			Hand_RingTip			Hand_PinkyTip		
		X1	Y1	Z1	X2	Y2	Z2	X3	Y3	Z3	X4	Y4	Z4	X5	Y5	Z5	X6	Y6	Z6	X7	Y7	Z7	X8	Y8	Z8	X9	Y9	Z9	X10	Y10	Z10	X11	Y11	Z11	X12	Y12	Z12	X13	Y13	Z13	X14	Y14	Z14	X15	Y15	Z15	X16	Y16	Z16	X17	Y17	Z17	X18	Y18	Z18	X19	Y19	Z19	X20	Y20	Z20	X21	Y21	Z21
																																																																
107	1.472222222	260.2783	-17.41482	-16.20942	221.7517	-2.840891	-46.91762	196.1093	1.331314	-67.84414	174.2126	2.089009	-94.71757	224.5505	7.762894	-108.0316	204.0417	1.505241	-140.5061	182.6512	-9.230033	-147.5082	238.773	-9.83645	-111.713	211.2187	-20.89562	-144.246	186.3823	-33.17381	-138.6411	245.187	-29.66978	-107.1472	220.019	-42.69166	-135.3948	196.0554	-49.69265	-124.4343	248.7574	-49.83445	-98.03274	229.9558	-58.29711	-121.8744	210.6026	-60.36808	-114.4259	156.8757	1.182899	-113.0696	163.2357	-20.92029	-151.2606	172.0026	-39.26297	-118.3005	187.257	-47.44835	-101.125	201.0897	-53.91254	-95.05074
108	1.486111111	254.3971	-16.80082	-24.32941	216.0134	-2.827466	-55.49102	190.4336	0.8537173	-76.58543	168.6887	1.095712	-103.5914	219.2815	7.421911	-116.6432	198.8771	0.6827712	-149.0871	177.6402	-10.33229	-156.1221	233.7294	-10.04285	-120.0791	206.8248	-21.51352	-153.0111	181.8812	-34.07079	-148.6345	240.3147	-29.77663	-115.329	216.3538	-43.06757	-144.4862	191.9259	-50.5904	-134.9949	244.0166	-49.8448	-106.0556	226.0712	-58.61735	-130.4386	206.4486	-61.09893	-123.8726	151.4899	-0.2231002	-122.0483	158.3735	-22.26382	-159.8825	166.473	-40.63338	-129.2153	181.5399	-48.86335	-112.3031	195.7327	-54.97491	-105.025
109	1.5	250.9693	-16.98188	-29.41922	212.8741	-3.295586	-61.06044	187.4308	0.09532273	-82.36767	165.9159	-0.005289912	-109.558	216.7912	6.797984	-122.1989	196.5215	-0.2105683	-154.6701	175.3977	-11.34293	-161.8594	231.3577	-10.60955	-125.4172	204.7248	-22.41449	-158.4517	179.7886	-35.07982	-154.3532	237.9799	-30.29792	-120.5321	214.5698	-43.79539	-150.04	190.0106	-51.44511	-140.9997	241.6691	-50.32061	-111.1557	224.3572	-59.18919	-135.9585	204.5824	-61.85381	-129.9441	148.8985	-1.598522	-128.1607	156.2213	-23.37615	-165.7547	164.0265	-41.76013	-135.2609	179.0777	-49.79543	-118.5605	193.1385	-55.92649	-111.4652
110	1.513888889	248.2974	-15.65143	-35.07717	210.268	-2.426833	-67.00796	184.8756	0.5070269	-88.44335	163.5675	-0.2121627	-115.7868	214.5134	7.748395	-128.0975	194.4194	0.6344616	-160.6551	173.4419	-10.60793	-168.0971	229.2388	-9.545535	-131.2038	202.6514	-21.73802	-164.1341	177.9069	-34.56846	-159.4322	235.9877	-29.17454	-126.2539	212.3494	-43.04162	-155.4063	188.017	-50.68794	-145.7698	239.7781	-49.15634	-116.831	222.6333	-58.15724	-141.702	202.883	-60.91723	-135.6501	146.7519	-2.325982	-134.5208	154.3859	-22.75428	-172.2248	162.5482	-41.1329	-139.9743	177.5479	-48.81737	-123.1274	191.4021	-55.02966	-117.1815
111	1.527777778	245.0534	-14.99571	-40.34891	206.8725	-1.560226	-72.05478	181.3723	1.220569	-93.38236	160.1961	-0.1602322	-120.8028	210.9352	9.50931	-132.9616	190.5548	3.04769	-165.4772	169.4672	-7.850185	-173.1178	225.508	-7.868901	-136.3074	198.023	-19.81606	-168.584	173.5257	-32.42303	-162.2622	232.1315	-27.59375	-131.5735	206.7385	-41.38787	-159.2473	183.124	-48.42539	-147.5756	235.8189	-47.6891	-122.353	217.7291	-56.31979	-146.6802	198.2746	-58.67268	-139.5876	143.591	-2.915159	-139.6409	150.2828	-19.74417	-177.3831	159.3544	-38.55659	-141.7892	174.5925	-45.92974	-124.1927	187.9303	-52.5402	-120.5362
112	1.541666667	236.6414	-13.89903	-52.14919	198.6628	1.223385	-83.36022	173.1208	4.976451	-104.488	151.8974	4.195154	-131.8955	202.6997	13.48299	-144.0179	181.862	8.458078	-176.4973	160.3556	-1.4835	-184.2734	216.6203	-4.335463	-147.7971	188.144	-14.83375	-179.7162	163.4709	-26.65156	-172.6032	222.576	-24.36525	-143.4739	195.6149	-36.93873	-170.2308	172.3748	-43.07449	-157.3605	225.619	-44.74324	-134.6474	206.6205	-52.26493	-158.6477	187.3484	-53.89446	-150.8858	135.2766	1.805246	-150.7696	140.7227	-12.57676	-188.6543	149.8844	-32.41891	-151.6334	165.2365	-40.31247	-133.5447	177.9934	-47.58483	-131.3861
113	1.555555556	232.437	-13.44973	-58.02891	194.5454	2.43777	-88.97024	168.9491	6.642997	-109.9466	147.6653	6.104052	-137.3131	198.5257	15.18768	-149.5254	177.4645	10.82128	-181.9558	155.77	1.289666	-189.7226	212.1637	-2.803862	-153.5092	182.7923	-12.8085	-184.769	158.2826	-24.28991	-176.6161	217.8384	-22.95476	-149.3752	189.4215	-35.13497	-174.773	167.054	-40.60656	-160.1732	220.6143	-43.44761	-140.7282	200.8184	-50.47309	-164.2291	181.9062	-51.62543	-155.5505	131.0187	3.844798	-156.1804	135.9388	-9.471476	-194.0386	145.571	-29.75303	-155.0253	161.8825	-37.33683	-135.9176	173.778	-45.06785	-135.5882
114	1.569444444	228.993	-12.96405	-63.33695	191.2567	3.861025	-93.96578	165.6687	8.731201	-114.8079	144.311	8.867219	-142.1217	195.2615	17.30509	-154.3735	174.0675	13.5897	-186.7986	152.2392	4.426792	-194.6339	208.6586	-0.8061379	-158.6236	178.4321	-10.25848	-189.2334	154.16	-21.51029	-180.1075	214.0822	-21.08078	-154.7667	184.6163	-32.68008	-179.2234	163.1017	-37.70433	-163.246	216.6125	-41.7193	-146.3953	195.8709	-48.17604	-169.2345	177.4889	-48.887	-159.4411	127.5987	7.080033	-160.9817	132.2593	-6.041214	-198.9845	142.3334	-26.83	-157.9847	159.6804	-34.20924	-138.7133	170.8356	-42.17587	-138.9896
115	1.583333333	224.4134	-12.05632	-69.80656	187.0744	5.398303	-100.5649	161.6943	10.72362	-121.5492	140.545	11.3472	-149.0181	191.6678	19.33458	-160.8232	170.7363	16.02593	-193.4619	148.9236	7.1055	-201.614	204.9559	1.15791	-165.1356	174.2257	-7.99939	-195.3307	150.2023	-19.12627	-185.4266	210.1876	-19.19457	-161.4268	180.1189	-30.42862	-185.3139	159.45	-35.05239	-168.1436	212.4863	-39.93043	-153.2307	191.1176	-45.99485	-175.5945	173.2864	-46.31713	-164.812	123.9684	9.898216	-168.0263	128.9048	-3.173798	-206.2279	139.1007	-24.30531	-162.8984	157.6462	-31.25128	-143.4845	168.0428	-39.4223	-144.0146
116	1.597222222	219.6121	-11.38343	-76.32403	182.4551	6.44432	-107.0834	157.192	12.05777	-128.1337	136.1756	13.05829	-155.6933	187.3686	20.97963	-167.1793	166.6535	17.94325	-199.9823	144.9142	9.102926	-208.413	200.6826	2.850875	-171.6125	169.4297	-6.232515	-201.2889	145.8219	-17.45011	-190.5251	205.896	-17.53987	-168.0931	175.2853	-28.61835	-191.3563	155.6538	-33.03422	-172.9579	208.1516	-38.36222	-160.1072	186.1194	-44.18112	-181.8846	168.9892	-44.26964	-170.0159	119.6954	11.85928	-174.8023	124.9317	-1.139775	-213.2599	135.602	-22.60484	-167.578	155.5993	-28.96871	-148.2751	165.2883	-37.26949	-148.924
117	1.611111111	214.763	-10.72299	-82.90336	177.8017	7.602215	-113.5891	152.5784	13.59379	-134.5829	131.5547	15.1099	-162.1134	182.9647	22.6289	-173.5577	162.3359	19.6954	-206.4243	140.6407	10.87892	-214.9925	196.2856	4.537702	-178.1217	164.8425	-4.271507	-207.6796	141.448	-15.58328	-196.555	201.4674	-15.89346	-174.7951	171.0835	-26.53742	-198.553	151.3421	-31.19612	-180.3329	203.6704	-36.80128	-167.0205	181.7293	-42.30094	-188.972	164.7007	-42.44256	-176.9587	115.0477	14.29844	-181.2195	120.6851	0.6402731	-219.9573	131.7017	-20.83731	-173.4251	151.3323	-27.44567	-155.6002	161.3275	-35.62838	-155.7512
118	1.625	208.9461	-10.11734	-89.8003	172.4078	8.39074	-120.8553	147.4141	14.57055	-142.068	126.728	16.30636	-169.8402	178.4028	23.84396	-180.6597	158.11	20.72938	-213.7183	136.6259	11.71322	-222.6047	191.9543	5.911186	-185.1691	161.2234	-2.564833	-215.5617	137.6694	-14.22589	-205.1576	197.2548	-14.50686	-181.9504	167.9781	-24.78938	-207.2105	147.2941	-30.12006	-190.2649	199.5057	-35.46982	-174.34	178.7307	-40.78577	-197.4412	161.0884	-41.37282	-186.3632	110.4528	15.65726	-189.1505	116.8443	1.273111	-227.8389	127.5338	-19.91884	-182.3004	146.0286	-27.02825	-165.4735	156.5993	-35.01336	-165.2215
119	1.638888889	197.4761	-8.25569	-103.2253	161.4135	10.62003	-134.6017	136.7567	17.08046	-156.1227	116.5522	19.27379	-184.2153	168.4363	27.24937	-193.9874	148.6718	24.44032	-227.3916	127.4489	15.35419	-236.8183	182.2523	9.540588	-198.5793	152.3032	1.52722	-229.8646	128.6425	-10.57765	-220.2385	187.6881	-10.88735	-195.6638	159.368	-20.73726	-222.1567	138.0089	-26.77485	-206.3221	189.992	-31.97798	-188.4313	170.1681	-36.93739	-212.4303	152.0738	-38.02064	-202.1473	100.605	18.96539	-203.8056	107.8799	4.799515	-242.5937	118.1414	-16.85008	-197.7003	135.6197	-24.45886	-181.529	146.6145	-32.26683	-181.0605
120	1.652777778	191.8595	-7.085338	-110.2911	156.1506	11.88825	-142.0101	131.6976	18.37824	-163.7538	111.7951	20.56931	-192.0611	163.8492	28.74611	-201.2484	144.46	26.01753	-234.8785	123.3717	16.95786	-244.6268	177.7341	11.06738	-205.7469	148.2023	3.259048	-237.4777	124.473	-8.914486	-228.1106	183.1541	-9.367123	-202.8471	155.11	-19.09317	-229.6773	133.6429	-25.21266	-214.021	185.3926	-30.48362	-195.6698	166.0396	-35.33806	-220.0712	147.7395	-36.51263	-210.1694	96.05089	20.27594	-211.8152	103.8901	6.416544	-250.714	113.8648	-15.26107	-205.6434	131.1597	-22.97737	-189.2297	141.8689	-30.88619	-189.1588
121	1.666666667	186.3264	-5.102336	-116.3673	150.6204	13.92239	-148.0599	126.0899	20.3988	-169.7202	106.0875	22.45241	-197.9673	158.2214	30.46769	-207.3979	138.6995	27.68296	-240.9465	117.5444	18.71663	-250.6366	171.989	12.68822	-211.8596	142.3574	5.011618	-243.5294	118.6219	-6.990969	-233.9594	177.3007	-7.763565	-208.8824	149.0443	-17.41976	-235.5143	127.6889	-23.33421	-219.6283	179.4412	-28.85908	-201.6142	160.1781	-33.69087	-226.0911	141.8097	-34.75124	-216.3036	90.25415	22.09264	-217.649	97.99286	8.274853	-256.6705	108.2129	-13.1411	-211.3449	125.5339	-20.93726	-194.8214	135.8593	-29.03432	-195.34
122	1.680555556	180.8784	-3.2271	-122.4309	145.2062	15.92065	-154.0818	120.6562	22.51352	-175.6848	100.5851	24.62365	-203.8791	152.7326	32.17115	-213.5159	133.1518	29.3702	-247.0287	111.9448	20.49769	-256.6916	166.3929	14.30203	-217.9492	136.8347	6.836429	-249.7378	112.9128	-5.011424	-240.4431	171.602	-6.167397	-214.9129	143.4176	-15.64573	-241.6845	121.8382	-21.49175	-226.0784	173.6474	-27.24825	-207.5751	154.6191	-32.05894	-232.2389	136.141	-33.02382	-222.6501	84.66487	24.36318	-223.492	92.33287	10.15164	-262.6946	102.2636	-11.13187	-217.9325	119.4089	-19.15334	-201.2912	130.0038	-27.23263	-201.7608
123	1.694444444	172.1393	-0.815168	-132.9929	136.6398	18.26833	-164.8682	112.2181	24.87276	-186.6126	92.32572	26.91267	-214.9383	144.4633	34.30746	-224.328	125.1422	31.46861	-257.9883	104.0101	22.57834	-267.7977	158.1648	16.43942	-228.6371	128.7897	8.885607	-260.5744	104.9669	-2.957955	-251.0232	163.3764	-4.016533	-225.5162	135.3403	-13.51894	-252.4346	113.8391	-19.31407	-236.7022	165.4014	-25.07545	-218.1096	146.5326	-29.9821	-242.877	128.0973	-30.87415	-233.1992	76.52299	26.61406	-234.6456	84.44041	12.21143	-273.9016	94.66539	-8.846894	-228.2902	111.7291	-16.82033	-211.9009	122.1825	-24.94253	-212.2852
